<?xml version="1.0" encoding="UTF-8"?>
<svg width="160px" height="510px" viewBox="0 0 160 510" version="1.1" xmlns="http://www.w3.org/2000/svg" xmlns:xlink="http://www.w3.org/1999/xlink">
    <!-- Generator: Sketch 42 (36781) - http://www.bohemiancoding.com/sketch -->
    <title>expand</title>
    <desc>Created with Sketch.</desc>
    <defs></defs>
    <g id="Page-1" stroke="none" stroke-width="1" fill="none" fill-rule="evenodd">
        <g id="expand" transform="translate(80.527558, 255.184568) rotate(90.000000) translate(-80.527558, -255.184568) translate(-173.972442, 175.184568)" fill-rule="nonzero" fill="#B5B7BA">
            <g id="Capa_1">
                <path d="M507.28,74.217 L503.879,69.068 L440.314,5.503 C434.148,-0.695 424.01,-0.695 417.844,5.503 C411.678,11.701 411.678,21.776 417.844,27.973 L454.267,64.396 L54.253,64.396 L90.676,27.973 C96.874,21.775 96.874,11.7 90.676,5.503 C84.478,-0.694 74.403,-0.695 68.206,5.503 L4.64,69.068 L4.545,69.227 L1.24,74.217 L0,80.256 L0,80.32 L1.24,86.327 L4.545,91.285 L4.64,91.476 L68.205,155.041 C74.403,161.207 84.478,161.207 90.675,155.041 C96.872,148.875 96.873,138.737 90.675,132.571 L54.252,96.148 L454.266,96.148 L417.843,132.571 C411.709,138.705 411.709,148.844 417.843,155.041 C424.041,161.175 434.179,161.175 440.313,155.041 L503.878,91.476 L507.31,86.327 L508.518,80.32 L508.518,80.256 L507.28,74.217 Z" id="Shape"></path>
            </g>
        </g>
    </g>
</svg>